<mxfile host="app.diagrams.net" modified="2021-08-12T11:01:04.656Z" agent="5.0 (Windows NT 10.0; Win64; x64) AppleWebKit/537.36 (KHTML, like Gecko) Chrome/92.0.4515.131 Safari/537.36" etag="xp7eBnOGzJSPixIk5CX5" version="14.9.6" type="github">
  <diagram id="R2lEEEUBdFMjLlhIrx00" name="Page-1">
    <mxGraphModel dx="2846" dy="2116" grid="1" gridSize="10" guides="1" tooltips="1" connect="1" arrows="1" fold="1" page="1" pageScale="1" pageWidth="850" pageHeight="1100" math="0" shadow="0" extFonts="Permanent Marker^https://fonts.googleapis.com/css?family=Permanent+Marker">
      <root>
        <mxCell id="0" />
        <mxCell id="1" parent="0" />
        <mxCell id="jTqTIfcvwIFW0CQxLmbo-1" value="User&lt;br style=&quot;font-size: 16px;&quot;&gt;" style="rounded=0;whiteSpace=wrap;html=1;fillColor=#ffe6cc;strokeColor=#d79b00;fontSize=16;" vertex="1" parent="1">
          <mxGeometry x="140" y="140" width="120" height="60" as="geometry" />
        </mxCell>
        <mxCell id="jTqTIfcvwIFW0CQxLmbo-2" value="userid&lt;br style=&quot;font-size: 16px;&quot;&gt;(pk)" style="ellipse;whiteSpace=wrap;html=1;fillColor=#66B2FF;fontSize=16;" vertex="1" parent="1">
          <mxGeometry x="250" y="-40" width="90" height="68.75" as="geometry" />
        </mxCell>
        <mxCell id="jTqTIfcvwIFW0CQxLmbo-3" value="Name" style="ellipse;whiteSpace=wrap;html=1;fontSize=16;" vertex="1" parent="1">
          <mxGeometry x="40" y="30" width="100" height="70" as="geometry" />
        </mxCell>
        <mxCell id="jTqTIfcvwIFW0CQxLmbo-4" value="Email" style="ellipse;whiteSpace=wrap;html=1;fontSize=16;" vertex="1" parent="1">
          <mxGeometry x="140" y="10" width="110" height="60" as="geometry" />
        </mxCell>
        <mxCell id="jTqTIfcvwIFW0CQxLmbo-6" value="Address" style="ellipse;whiteSpace=wrap;html=1;fontSize=16;" vertex="1" parent="1">
          <mxGeometry x="-20" y="150" width="110" height="80" as="geometry" />
        </mxCell>
        <mxCell id="jTqTIfcvwIFW0CQxLmbo-7" value="Password" style="ellipse;whiteSpace=wrap;html=1;fontSize=16;" vertex="1" parent="1">
          <mxGeometry x="130" y="260" width="110" height="100" as="geometry" />
        </mxCell>
        <mxCell id="jTqTIfcvwIFW0CQxLmbo-8" value="Phone Number" style="ellipse;whiteSpace=wrap;html=1;fontSize=16;" vertex="1" parent="1">
          <mxGeometry x="280" y="240" width="110" height="90" as="geometry" />
        </mxCell>
        <mxCell id="jTqTIfcvwIFW0CQxLmbo-10" value="" style="endArrow=none;html=1;exitX=1;exitY=0;exitDx=0;exitDy=0;fontSize=16;" edge="1" parent="1" source="jTqTIfcvwIFW0CQxLmbo-1">
          <mxGeometry width="50" height="50" relative="1" as="geometry">
            <mxPoint x="260" y="160" as="sourcePoint" />
            <mxPoint x="300" y="20" as="targetPoint" />
            <Array as="points" />
          </mxGeometry>
        </mxCell>
        <mxCell id="jTqTIfcvwIFW0CQxLmbo-12" value="" style="endArrow=none;html=1;exitX=0.5;exitY=0;exitDx=0;exitDy=0;entryX=0.5;entryY=1;entryDx=0;entryDy=0;fontSize=16;" edge="1" parent="1" source="jTqTIfcvwIFW0CQxLmbo-7" target="jTqTIfcvwIFW0CQxLmbo-1">
          <mxGeometry width="50" height="50" relative="1" as="geometry">
            <mxPoint x="150" y="260" as="sourcePoint" />
            <mxPoint x="200" y="210" as="targetPoint" />
            <Array as="points">
              <mxPoint x="200" y="220" />
            </Array>
          </mxGeometry>
        </mxCell>
        <mxCell id="jTqTIfcvwIFW0CQxLmbo-14" value="" style="endArrow=none;html=1;exitX=1;exitY=0.5;exitDx=0;exitDy=0;entryX=0;entryY=0.5;entryDx=0;entryDy=0;fontSize=16;" edge="1" parent="1" source="jTqTIfcvwIFW0CQxLmbo-6" target="jTqTIfcvwIFW0CQxLmbo-1">
          <mxGeometry width="50" height="50" relative="1" as="geometry">
            <mxPoint x="90" y="200" as="sourcePoint" />
            <mxPoint x="140" y="150" as="targetPoint" />
          </mxGeometry>
        </mxCell>
        <mxCell id="jTqTIfcvwIFW0CQxLmbo-16" value="" style="endArrow=none;html=1;fontSize=16;" edge="1" parent="1">
          <mxGeometry width="50" height="50" relative="1" as="geometry">
            <mxPoint x="200" y="140" as="sourcePoint" />
            <mxPoint x="200" y="70" as="targetPoint" />
            <Array as="points">
              <mxPoint x="200" y="110" />
            </Array>
          </mxGeometry>
        </mxCell>
        <mxCell id="jTqTIfcvwIFW0CQxLmbo-17" value="" style="endArrow=none;html=1;entryX=0.25;entryY=0;entryDx=0;entryDy=0;exitX=0.782;exitY=0.895;exitDx=0;exitDy=0;exitPerimeter=0;fontSize=16;" edge="1" parent="1" source="jTqTIfcvwIFW0CQxLmbo-3" target="jTqTIfcvwIFW0CQxLmbo-1">
          <mxGeometry width="50" height="50" relative="1" as="geometry">
            <mxPoint x="120" y="140" as="sourcePoint" />
            <mxPoint x="170" y="90" as="targetPoint" />
          </mxGeometry>
        </mxCell>
        <mxCell id="jTqTIfcvwIFW0CQxLmbo-18" value="" style="endArrow=none;html=1;entryX=0.863;entryY=1.036;entryDx=0;entryDy=0;entryPerimeter=0;exitX=0.254;exitY=0.078;exitDx=0;exitDy=0;exitPerimeter=0;fontSize=16;" edge="1" parent="1" source="jTqTIfcvwIFW0CQxLmbo-8" target="jTqTIfcvwIFW0CQxLmbo-1">
          <mxGeometry width="50" height="50" relative="1" as="geometry">
            <mxPoint x="220" y="260" as="sourcePoint" />
            <mxPoint x="270" y="210" as="targetPoint" />
          </mxGeometry>
        </mxCell>
        <mxCell id="jTqTIfcvwIFW0CQxLmbo-19" value="Product" style="rounded=0;whiteSpace=wrap;html=1;fillColor=#ffe6cc;strokeColor=#d79b00;fontSize=16;" vertex="1" parent="1">
          <mxGeometry x="145" y="1210" width="120" height="60" as="geometry" />
        </mxCell>
        <mxCell id="jTqTIfcvwIFW0CQxLmbo-20" value="Product id(pk)" style="ellipse;whiteSpace=wrap;html=1;fillColor=#66B2FF;fontSize=18;" vertex="1" parent="1">
          <mxGeometry x="-80" y="1060" width="130" height="100" as="geometry" />
        </mxCell>
        <mxCell id="jTqTIfcvwIFW0CQxLmbo-21" value="ProduceName" style="ellipse;whiteSpace=wrap;html=1;fontSize=16;" vertex="1" parent="1">
          <mxGeometry x="70" y="1050" width="130" height="90" as="geometry" />
        </mxCell>
        <mxCell id="jTqTIfcvwIFW0CQxLmbo-22" value="CategoryId(Fk)" style="ellipse;whiteSpace=wrap;html=1;fillColor=#FF7AAB;fontSize=18;" vertex="1" parent="1">
          <mxGeometry x="300" y="1040" width="140" height="100" as="geometry" />
        </mxCell>
        <mxCell id="jTqTIfcvwIFW0CQxLmbo-23" value="Price" style="ellipse;whiteSpace=wrap;html=1;fontSize=17;" vertex="1" parent="1">
          <mxGeometry x="-5" y="1300" width="110" height="80" as="geometry" />
        </mxCell>
        <mxCell id="jTqTIfcvwIFW0CQxLmbo-24" value="Categories" style="rounded=0;whiteSpace=wrap;html=1;fillColor=#ffe6cc;strokeColor=#d79b00;fontSize=16;" vertex="1" parent="1">
          <mxGeometry x="1070" y="1197.5" width="120" height="60" as="geometry" />
        </mxCell>
        <mxCell id="jTqTIfcvwIFW0CQxLmbo-25" value="CategoryId(PK)" style="ellipse;whiteSpace=wrap;html=1;fillColor=#66B2FF;fontSize=17;" vertex="1" parent="1">
          <mxGeometry x="980" y="1060" width="150" height="97.5" as="geometry" />
        </mxCell>
        <mxCell id="jTqTIfcvwIFW0CQxLmbo-26" value="CategoryName" style="ellipse;whiteSpace=wrap;html=1;fillColor=#FFFFFF;fontSize=18;" vertex="1" parent="1">
          <mxGeometry x="1175" y="1092.5" width="155" height="67.5" as="geometry" />
        </mxCell>
        <mxCell id="jTqTIfcvwIFW0CQxLmbo-27" value="Description" style="ellipse;whiteSpace=wrap;html=1;fontSize=20;" vertex="1" parent="1">
          <mxGeometry x="1030" y="1307.5" width="145" height="92.5" as="geometry" />
        </mxCell>
        <mxCell id="jTqTIfcvwIFW0CQxLmbo-28" value="" style="endArrow=none;html=1;entryX=0.576;entryY=1.078;entryDx=0;entryDy=0;entryPerimeter=0;exitX=1.015;exitY=0.603;exitDx=0;exitDy=0;exitPerimeter=0;fontSize=16;" edge="1" parent="1" source="jTqTIfcvwIFW0CQxLmbo-23" target="jTqTIfcvwIFW0CQxLmbo-19">
          <mxGeometry width="50" height="50" relative="1" as="geometry">
            <mxPoint x="175" y="1350" as="sourcePoint" />
            <mxPoint x="225" y="1300" as="targetPoint" />
            <Array as="points">
              <mxPoint x="214" y="1336" />
            </Array>
          </mxGeometry>
        </mxCell>
        <mxCell id="jTqTIfcvwIFW0CQxLmbo-35" value="" style="endArrow=none;html=1;entryX=0.547;entryY=1.024;entryDx=0;entryDy=0;entryPerimeter=0;exitX=0.572;exitY=-0.068;exitDx=0;exitDy=0;exitPerimeter=0;fontSize=16;" edge="1" parent="1" source="jTqTIfcvwIFW0CQxLmbo-27" target="jTqTIfcvwIFW0CQxLmbo-24">
          <mxGeometry width="50" height="50" relative="1" as="geometry">
            <mxPoint x="1110" y="1327.5" as="sourcePoint" />
            <mxPoint x="1160" y="1277.5" as="targetPoint" />
          </mxGeometry>
        </mxCell>
        <mxCell id="jTqTIfcvwIFW0CQxLmbo-36" value="" style="endArrow=none;html=1;exitX=1;exitY=0;exitDx=0;exitDy=0;entryX=0.5;entryY=1;entryDx=0;entryDy=0;fontSize=16;" edge="1" parent="1" source="jTqTIfcvwIFW0CQxLmbo-24" target="jTqTIfcvwIFW0CQxLmbo-26">
          <mxGeometry width="50" height="50" relative="1" as="geometry">
            <mxPoint x="1100" y="1197.5" as="sourcePoint" />
            <mxPoint x="1130" y="1147.5" as="targetPoint" />
          </mxGeometry>
        </mxCell>
        <mxCell id="jTqTIfcvwIFW0CQxLmbo-37" value="HAS&amp;nbsp;" style="rhombus;whiteSpace=wrap;html=1;fillColor=#FF9999;fontSize=16;" vertex="1" parent="1">
          <mxGeometry x="660" y="1190" width="80" height="80" as="geometry" />
        </mxCell>
        <mxCell id="jTqTIfcvwIFW0CQxLmbo-38" value="" style="endArrow=none;html=1;exitX=1;exitY=0.5;exitDx=0;exitDy=0;entryX=0;entryY=0.5;entryDx=0;entryDy=0;fontSize=16;" edge="1" parent="1" source="jTqTIfcvwIFW0CQxLmbo-19" target="jTqTIfcvwIFW0CQxLmbo-37">
          <mxGeometry width="50" height="50" relative="1" as="geometry">
            <mxPoint x="345" y="750" as="sourcePoint" />
            <mxPoint x="395" y="700" as="targetPoint" />
          </mxGeometry>
        </mxCell>
        <mxCell id="jTqTIfcvwIFW0CQxLmbo-42" value="Order" style="rounded=0;whiteSpace=wrap;html=1;fillColor=#ffe6cc;strokeColor=#d79b00;fontSize=16;" vertex="1" parent="1">
          <mxGeometry x="1185" y="58.75" width="120" height="60" as="geometry" />
        </mxCell>
        <mxCell id="jTqTIfcvwIFW0CQxLmbo-43" value="OrderId(PK)" style="ellipse;whiteSpace=wrap;html=1;fillColor=#66B2FF;fontSize=16;" vertex="1" parent="1">
          <mxGeometry x="1060" y="-70" width="105" height="61.25" as="geometry" />
        </mxCell>
        <mxCell id="jTqTIfcvwIFW0CQxLmbo-44" value="UserID(FK)" style="ellipse;whiteSpace=wrap;html=1;fillColor=#FF7AAB;fontSize=16;" vertex="1" parent="1">
          <mxGeometry x="1210" y="-58.75" width="110" height="50" as="geometry" />
        </mxCell>
        <mxCell id="jTqTIfcvwIFW0CQxLmbo-45" value="ProductID(FK)" style="ellipse;whiteSpace=wrap;html=1;fillColor=#FF7AAB;fontSize=16;" vertex="1" parent="1">
          <mxGeometry x="1340" y="-110" width="120" height="90" as="geometry" />
        </mxCell>
        <mxCell id="jTqTIfcvwIFW0CQxLmbo-46" value="OrderStatus" style="ellipse;whiteSpace=wrap;html=1;fontSize=16;" vertex="1" parent="1">
          <mxGeometry x="1050" y="168.75" width="115" height="61.25" as="geometry" />
        </mxCell>
        <mxCell id="jTqTIfcvwIFW0CQxLmbo-47" value="OrderedDate" style="ellipse;whiteSpace=wrap;html=1;fontSize=16;" vertex="1" parent="1">
          <mxGeometry x="1315" y="148.75" width="90" height="50" as="geometry" />
        </mxCell>
        <mxCell id="jTqTIfcvwIFW0CQxLmbo-48" value="HAS" style="rhombus;whiteSpace=wrap;html=1;fillColor=#FF9999;fontSize=16;" vertex="1" parent="1">
          <mxGeometry x="710" y="-36.25" width="80" height="80" as="geometry" />
        </mxCell>
        <mxCell id="jTqTIfcvwIFW0CQxLmbo-49" value="" style="endArrow=none;html=1;entryX=0;entryY=0.5;entryDx=0;entryDy=0;fontSize=16;" edge="1" parent="1" target="jTqTIfcvwIFW0CQxLmbo-48">
          <mxGeometry width="50" height="50" relative="1" as="geometry">
            <mxPoint x="260" y="150" as="sourcePoint" />
            <mxPoint x="530" as="targetPoint" />
            <Array as="points">
              <mxPoint x="350" y="150" />
              <mxPoint x="440" y="150" />
              <mxPoint x="440" y="4" />
            </Array>
          </mxGeometry>
        </mxCell>
        <mxCell id="jTqTIfcvwIFW0CQxLmbo-50" value="" style="endArrow=none;html=1;exitX=1;exitY=0.5;exitDx=0;exitDy=0;entryX=-0.012;entryY=0.361;entryDx=0;entryDy=0;entryPerimeter=0;fontSize=16;" edge="1" parent="1" source="jTqTIfcvwIFW0CQxLmbo-48" target="jTqTIfcvwIFW0CQxLmbo-42">
          <mxGeometry width="50" height="50" relative="1" as="geometry">
            <mxPoint x="1105" y="98.75" as="sourcePoint" />
            <mxPoint x="1185" y="98.75" as="targetPoint" />
            <Array as="points">
              <mxPoint x="960" y="4" />
              <mxPoint x="960" y="80" />
              <mxPoint x="1070" y="80" />
            </Array>
          </mxGeometry>
        </mxCell>
        <mxCell id="jTqTIfcvwIFW0CQxLmbo-52" value="" style="endArrow=none;html=1;entryX=0.5;entryY=1;entryDx=0;entryDy=0;fontSize=16;" edge="1" parent="1">
          <mxGeometry width="50" height="50" relative="1" as="geometry">
            <mxPoint x="1255" y="58.75" as="sourcePoint" />
            <mxPoint x="1255" y="-11.250000000000114" as="targetPoint" />
          </mxGeometry>
        </mxCell>
        <mxCell id="jTqTIfcvwIFW0CQxLmbo-53" value="" style="endArrow=none;html=1;entryX=0.5;entryY=1;entryDx=0;entryDy=0;fontSize=16;" edge="1" parent="1" target="jTqTIfcvwIFW0CQxLmbo-45">
          <mxGeometry width="50" height="50" relative="1" as="geometry">
            <mxPoint x="1305" y="70" as="sourcePoint" />
            <mxPoint x="1390" y="-10" as="targetPoint" />
            <Array as="points">
              <mxPoint x="1380" y="70" />
              <mxPoint x="1402" y="70" />
            </Array>
          </mxGeometry>
        </mxCell>
        <mxCell id="jTqTIfcvwIFW0CQxLmbo-55" value="" style="endArrow=none;html=1;exitX=0.5;exitY=0;exitDx=0;exitDy=0;entryX=1;entryY=0.75;entryDx=0;entryDy=0;fontSize=16;" edge="1" parent="1" source="jTqTIfcvwIFW0CQxLmbo-47" target="jTqTIfcvwIFW0CQxLmbo-42">
          <mxGeometry width="50" height="50" relative="1" as="geometry">
            <mxPoint x="1325" y="158.75" as="sourcePoint" />
            <mxPoint x="1350" y="98.75" as="targetPoint" />
            <Array as="points">
              <mxPoint x="1360" y="103.75" />
            </Array>
          </mxGeometry>
        </mxCell>
        <mxCell id="jTqTIfcvwIFW0CQxLmbo-57" value="" style="endArrow=none;html=1;exitX=0.5;exitY=1;exitDx=0;exitDy=0;fontSize=16;" edge="1" parent="1" source="jTqTIfcvwIFW0CQxLmbo-43">
          <mxGeometry width="50" height="50" relative="1" as="geometry">
            <mxPoint x="1135" y="88.75" as="sourcePoint" />
            <mxPoint x="1210" y="60" as="targetPoint" />
            <Array as="points" />
          </mxGeometry>
        </mxCell>
        <mxCell id="jTqTIfcvwIFW0CQxLmbo-60" value="" style="endArrow=none;html=1;entryX=0.5;entryY=1;entryDx=0;entryDy=0;exitX=0;exitY=0.5;exitDx=0;exitDy=0;fontSize=16;" edge="1" parent="1" source="jTqTIfcvwIFW0CQxLmbo-19" target="jTqTIfcvwIFW0CQxLmbo-20">
          <mxGeometry width="50" height="50" relative="1" as="geometry">
            <mxPoint x="60" y="1260" as="sourcePoint" />
            <mxPoint x="105" y="1210" as="targetPoint" />
            <Array as="points">
              <mxPoint x="60" y="1240" />
            </Array>
          </mxGeometry>
        </mxCell>
        <mxCell id="jTqTIfcvwIFW0CQxLmbo-61" value="" style="endArrow=none;html=1;entryX=0.25;entryY=1;entryDx=0;entryDy=0;exitX=1;exitY=0;exitDx=0;exitDy=0;fontSize=16;" edge="1" parent="1" source="jTqTIfcvwIFW0CQxLmbo-46" target="jTqTIfcvwIFW0CQxLmbo-42">
          <mxGeometry width="50" height="50" relative="1" as="geometry">
            <mxPoint x="1165" y="178.75" as="sourcePoint" />
            <mxPoint x="1215" y="128.75" as="targetPoint" />
          </mxGeometry>
        </mxCell>
        <mxCell id="jTqTIfcvwIFW0CQxLmbo-62" value="Cart" style="rounded=0;whiteSpace=wrap;html=1;fontSize=16;" vertex="1" parent="1">
          <mxGeometry x="725" y="880" width="120" height="60" as="geometry" />
        </mxCell>
        <mxCell id="jTqTIfcvwIFW0CQxLmbo-63" value="CartID(PK)" style="ellipse;whiteSpace=wrap;html=1;fillColor=#66B2FF;fontSize=16;" vertex="1" parent="1">
          <mxGeometry x="640" y="740" width="105" height="70" as="geometry" />
        </mxCell>
        <mxCell id="jTqTIfcvwIFW0CQxLmbo-64" value="Number of Items" style="ellipse;whiteSpace=wrap;html=1;fontSize=18;" vertex="1" parent="1">
          <mxGeometry x="795" y="710" width="135" height="90" as="geometry" />
        </mxCell>
        <mxCell id="jTqTIfcvwIFW0CQxLmbo-65" value="" style="endArrow=none;html=1;entryX=0.687;entryY=0.979;entryDx=0;entryDy=0;entryPerimeter=0;exitX=0.198;exitY=-0.046;exitDx=0;exitDy=0;exitPerimeter=0;fontSize=16;" edge="1" parent="1" source="jTqTIfcvwIFW0CQxLmbo-62" target="jTqTIfcvwIFW0CQxLmbo-63">
          <mxGeometry width="50" height="50" relative="1" as="geometry">
            <mxPoint x="715" y="870" as="sourcePoint" />
            <mxPoint x="765" y="820" as="targetPoint" />
          </mxGeometry>
        </mxCell>
        <mxCell id="jTqTIfcvwIFW0CQxLmbo-66" value="" style="endArrow=none;html=1;entryX=0.5;entryY=1;entryDx=0;entryDy=0;exitX=0.75;exitY=0;exitDx=0;exitDy=0;fontSize=16;" edge="1" parent="1" source="jTqTIfcvwIFW0CQxLmbo-62" target="jTqTIfcvwIFW0CQxLmbo-64">
          <mxGeometry width="50" height="50" relative="1" as="geometry">
            <mxPoint x="825" y="870" as="sourcePoint" />
            <mxPoint x="875" y="820" as="targetPoint" />
          </mxGeometry>
        </mxCell>
        <mxCell id="jTqTIfcvwIFW0CQxLmbo-67" value="ProductId(FK)" style="ellipse;whiteSpace=wrap;html=1;fillColor=#FF7AAB;fontSize=18;" vertex="1" parent="1">
          <mxGeometry x="530" y="830" width="135" height="100" as="geometry" />
        </mxCell>
        <mxCell id="jTqTIfcvwIFW0CQxLmbo-70" value="" style="endArrow=none;html=1;fontSize=16;" edge="1" parent="1" source="jTqTIfcvwIFW0CQxLmbo-67">
          <mxGeometry width="50" height="50" relative="1" as="geometry">
            <mxPoint x="665" y="945" as="sourcePoint" />
            <mxPoint x="735.7106781186548" y="895" as="targetPoint" />
          </mxGeometry>
        </mxCell>
        <mxCell id="jTqTIfcvwIFW0CQxLmbo-71" value="Admin" style="rounded=0;whiteSpace=wrap;html=1;fillColor=#B266FF;fontSize=16;" vertex="1" parent="1">
          <mxGeometry x="680" y="355" width="120" height="60" as="geometry" />
        </mxCell>
        <mxCell id="jTqTIfcvwIFW0CQxLmbo-72" value="AdminId(PK)" style="ellipse;whiteSpace=wrap;html=1;fillColor=#66B2FF;fontSize=16;" vertex="1" parent="1">
          <mxGeometry x="470" y="300" width="100" height="70" as="geometry" />
        </mxCell>
        <mxCell id="jTqTIfcvwIFW0CQxLmbo-73" value="EmailID" style="ellipse;whiteSpace=wrap;html=1;fontSize=16;" vertex="1" parent="1">
          <mxGeometry x="580" y="230" width="110" height="80" as="geometry" />
        </mxCell>
        <mxCell id="jTqTIfcvwIFW0CQxLmbo-75" value="Password" style="ellipse;whiteSpace=wrap;html=1;fontSize=16;" vertex="1" parent="1">
          <mxGeometry x="860" y="230" width="110" height="80" as="geometry" />
        </mxCell>
        <mxCell id="jTqTIfcvwIFW0CQxLmbo-76" value="UserID(FK)" style="ellipse;whiteSpace=wrap;html=1;fillColor=#FF7AAB;fontSize=16;" vertex="1" parent="1">
          <mxGeometry x="540" y="460" width="130" height="70" as="geometry" />
        </mxCell>
        <mxCell id="jTqTIfcvwIFW0CQxLmbo-77" value="ProductID(FK)" style="ellipse;whiteSpace=wrap;html=1;fillColor=#FF7AAB;fontSize=16;" vertex="1" parent="1">
          <mxGeometry x="770" y="480" width="130" height="70" as="geometry" />
        </mxCell>
        <mxCell id="jTqTIfcvwIFW0CQxLmbo-78" value="Name" style="ellipse;whiteSpace=wrap;html=1;fontSize=16;" vertex="1" parent="1">
          <mxGeometry x="885" y="350" width="95" height="90" as="geometry" />
        </mxCell>
        <mxCell id="jTqTIfcvwIFW0CQxLmbo-79" value="OrderID(FK)" style="ellipse;whiteSpace=wrap;html=1;fillColor=#FF7AAB;fontSize=16;" vertex="1" parent="1">
          <mxGeometry x="960" y="460" width="120" height="80" as="geometry" />
        </mxCell>
        <mxCell id="jTqTIfcvwIFW0CQxLmbo-80" value="" style="endArrow=none;html=1;entryX=0;entryY=0.5;entryDx=0;entryDy=0;exitX=1;exitY=0.5;exitDx=0;exitDy=0;fontSize=16;" edge="1" parent="1" source="jTqTIfcvwIFW0CQxLmbo-37" target="jTqTIfcvwIFW0CQxLmbo-24">
          <mxGeometry width="50" height="50" relative="1" as="geometry">
            <mxPoint x="1040" y="760" as="sourcePoint" />
            <mxPoint x="1090" y="710" as="targetPoint" />
          </mxGeometry>
        </mxCell>
        <mxCell id="jTqTIfcvwIFW0CQxLmbo-81" value="" style="endArrow=none;html=1;entryX=0;entryY=1;entryDx=0;entryDy=0;fontSize=16;" edge="1" parent="1" target="jTqTIfcvwIFW0CQxLmbo-71">
          <mxGeometry width="50" height="50" relative="1" as="geometry">
            <mxPoint x="630" y="470" as="sourcePoint" />
            <mxPoint x="680" y="420" as="targetPoint" />
          </mxGeometry>
        </mxCell>
        <mxCell id="jTqTIfcvwIFW0CQxLmbo-83" value="" style="endArrow=none;html=1;entryX=0.5;entryY=1;entryDx=0;entryDy=0;exitX=0;exitY=0.75;exitDx=0;exitDy=0;fontSize=16;" edge="1" parent="1" source="jTqTIfcvwIFW0CQxLmbo-71" target="jTqTIfcvwIFW0CQxLmbo-72">
          <mxGeometry width="50" height="50" relative="1" as="geometry">
            <mxPoint x="600" y="450" as="sourcePoint" />
            <mxPoint x="670" y="320" as="targetPoint" />
            <Array as="points">
              <mxPoint x="590" y="400" />
            </Array>
          </mxGeometry>
        </mxCell>
        <mxCell id="jTqTIfcvwIFW0CQxLmbo-84" value="" style="endArrow=none;html=1;exitX=0.5;exitY=0;exitDx=0;exitDy=0;fontSize=16;" edge="1" parent="1" source="jTqTIfcvwIFW0CQxLmbo-77">
          <mxGeometry width="50" height="50" relative="1" as="geometry">
            <mxPoint x="754" y="480" as="sourcePoint" />
            <mxPoint x="754" y="416" as="targetPoint" />
          </mxGeometry>
        </mxCell>
        <mxCell id="jTqTIfcvwIFW0CQxLmbo-85" value="" style="endArrow=none;html=1;entryX=0.623;entryY=1.011;entryDx=0;entryDy=0;entryPerimeter=0;exitX=0;exitY=0;exitDx=0;exitDy=0;fontSize=16;" edge="1" parent="1" source="jTqTIfcvwIFW0CQxLmbo-71" target="jTqTIfcvwIFW0CQxLmbo-73">
          <mxGeometry width="50" height="50" relative="1" as="geometry">
            <mxPoint x="752" y="350" as="sourcePoint" />
            <mxPoint x="770" y="300" as="targetPoint" />
          </mxGeometry>
        </mxCell>
        <mxCell id="jTqTIfcvwIFW0CQxLmbo-86" value="" style="endArrow=none;html=1;entryX=0;entryY=1;entryDx=0;entryDy=0;exitX=1;exitY=0;exitDx=0;exitDy=0;fontSize=16;" edge="1" parent="1" source="jTqTIfcvwIFW0CQxLmbo-71" target="jTqTIfcvwIFW0CQxLmbo-75">
          <mxGeometry width="50" height="50" relative="1" as="geometry">
            <mxPoint x="810" y="360" as="sourcePoint" />
            <mxPoint x="860" y="310" as="targetPoint" />
          </mxGeometry>
        </mxCell>
        <mxCell id="jTqTIfcvwIFW0CQxLmbo-87" value="" style="endArrow=none;html=1;entryX=0;entryY=0.5;entryDx=0;entryDy=0;exitX=1;exitY=0.5;exitDx=0;exitDy=0;fontSize=16;" edge="1" parent="1" source="jTqTIfcvwIFW0CQxLmbo-71" target="jTqTIfcvwIFW0CQxLmbo-78">
          <mxGeometry width="50" height="50" relative="1" as="geometry">
            <mxPoint x="820" y="430" as="sourcePoint" />
            <mxPoint x="870" y="380" as="targetPoint" />
          </mxGeometry>
        </mxCell>
        <mxCell id="jTqTIfcvwIFW0CQxLmbo-88" value="" style="endArrow=none;html=1;exitX=1;exitY=1;exitDx=0;exitDy=0;entryX=0;entryY=0;entryDx=0;entryDy=0;fontSize=16;" edge="1" parent="1" source="jTqTIfcvwIFW0CQxLmbo-71" target="jTqTIfcvwIFW0CQxLmbo-79">
          <mxGeometry width="50" height="50" relative="1" as="geometry">
            <mxPoint x="810" y="480" as="sourcePoint" />
            <mxPoint x="860" y="430" as="targetPoint" />
          </mxGeometry>
        </mxCell>
        <mxCell id="jTqTIfcvwIFW0CQxLmbo-89" value="ACCESS" style="rhombus;whiteSpace=wrap;html=1;fillColor=#99FF99;fontSize=16;" vertex="1" parent="1">
          <mxGeometry x="710" y="118.75" width="80" height="80" as="geometry" />
        </mxCell>
        <mxCell id="jTqTIfcvwIFW0CQxLmbo-92" value="" style="endArrow=none;html=1;entryX=0.5;entryY=1;entryDx=0;entryDy=0;exitX=0.583;exitY=0.083;exitDx=0;exitDy=0;exitPerimeter=0;fontSize=16;" edge="1" parent="1" source="jTqTIfcvwIFW0CQxLmbo-71" target="jTqTIfcvwIFW0CQxLmbo-89">
          <mxGeometry width="50" height="50" relative="1" as="geometry">
            <mxPoint x="740" y="290" as="sourcePoint" />
            <mxPoint x="790" y="240" as="targetPoint" />
          </mxGeometry>
        </mxCell>
        <mxCell id="jTqTIfcvwIFW0CQxLmbo-94" value="" style="endArrow=none;html=1;entryX=0;entryY=0.5;entryDx=0;entryDy=0;fontSize=16;" edge="1" parent="1" target="jTqTIfcvwIFW0CQxLmbo-89">
          <mxGeometry width="50" height="50" relative="1" as="geometry">
            <mxPoint x="261" y="180" as="sourcePoint" />
            <mxPoint x="680" y="150" as="targetPoint" />
            <Array as="points">
              <mxPoint x="360" y="180" />
              <mxPoint x="480" y="180" />
              <mxPoint x="480" y="159" />
            </Array>
          </mxGeometry>
        </mxCell>
        <mxCell id="jTqTIfcvwIFW0CQxLmbo-95" value="" style="endArrow=none;html=1;exitX=1;exitY=0.5;exitDx=0;exitDy=0;entryX=0.042;entryY=0.688;entryDx=0;entryDy=0;entryPerimeter=0;fontSize=16;" edge="1" parent="1" source="jTqTIfcvwIFW0CQxLmbo-89" target="jTqTIfcvwIFW0CQxLmbo-42">
          <mxGeometry width="50" height="50" relative="1" as="geometry">
            <mxPoint x="840" y="160" as="sourcePoint" />
            <mxPoint x="1180" y="100" as="targetPoint" />
            <Array as="points">
              <mxPoint x="1000" y="159" />
              <mxPoint x="1000" y="100" />
            </Array>
          </mxGeometry>
        </mxCell>
        <mxCell id="jTqTIfcvwIFW0CQxLmbo-97" value="ACCESS" style="rhombus;whiteSpace=wrap;html=1;fillColor=#99FF99;fontSize=16;" vertex="1" parent="1">
          <mxGeometry x="695" y="540" width="90" height="90" as="geometry" />
        </mxCell>
        <mxCell id="jTqTIfcvwIFW0CQxLmbo-98" value="" style="endArrow=none;html=1;entryX=0.5;entryY=1;entryDx=0;entryDy=0;exitX=0.5;exitY=0;exitDx=0;exitDy=0;fontSize=16;" edge="1" parent="1" source="jTqTIfcvwIFW0CQxLmbo-97" target="jTqTIfcvwIFW0CQxLmbo-71">
          <mxGeometry width="50" height="50" relative="1" as="geometry">
            <mxPoint x="740" y="590" as="sourcePoint" />
            <mxPoint x="790" y="540" as="targetPoint" />
          </mxGeometry>
        </mxCell>
        <mxCell id="jTqTIfcvwIFW0CQxLmbo-101" value="" style="endArrow=none;html=1;entryX=0.5;entryY=1;entryDx=0;entryDy=0;exitX=0.173;exitY=-0.068;exitDx=0;exitDy=0;exitPerimeter=0;fontSize=16;" edge="1" parent="1" source="jTqTIfcvwIFW0CQxLmbo-19" target="jTqTIfcvwIFW0CQxLmbo-21">
          <mxGeometry width="50" height="50" relative="1" as="geometry">
            <mxPoint x="140" y="1200" as="sourcePoint" />
            <mxPoint x="190" y="1150" as="targetPoint" />
          </mxGeometry>
        </mxCell>
        <mxCell id="jTqTIfcvwIFW0CQxLmbo-102" value="" style="endArrow=none;html=1;entryX=0.5;entryY=1;entryDx=0;entryDy=0;exitX=0.75;exitY=0;exitDx=0;exitDy=0;fontSize=16;" edge="1" parent="1" source="jTqTIfcvwIFW0CQxLmbo-19" target="jTqTIfcvwIFW0CQxLmbo-22">
          <mxGeometry width="50" height="50" relative="1" as="geometry">
            <mxPoint x="240" y="1200" as="sourcePoint" />
            <mxPoint x="290" y="1140" as="targetPoint" />
          </mxGeometry>
        </mxCell>
        <mxCell id="jTqTIfcvwIFW0CQxLmbo-103" value="1 : *" style="text;html=1;align=center;verticalAlign=middle;resizable=0;points=[];autosize=1;strokeColor=none;fontSize=30;" vertex="1" parent="1">
          <mxGeometry x="500" y="-40" width="70" height="40" as="geometry" />
        </mxCell>
        <mxCell id="jTqTIfcvwIFW0CQxLmbo-106" value="" style="endArrow=none;html=1;fontSize=16;entryX=0.5;entryY=1;entryDx=0;entryDy=0;" edge="1" parent="1" source="jTqTIfcvwIFW0CQxLmbo-24" target="jTqTIfcvwIFW0CQxLmbo-25">
          <mxGeometry width="50" height="50" relative="1" as="geometry">
            <mxPoint x="1090" y="1202.5" as="sourcePoint" />
            <mxPoint x="1140" y="1152.5" as="targetPoint" />
          </mxGeometry>
        </mxCell>
        <mxCell id="jTqTIfcvwIFW0CQxLmbo-110" value="" style="endArrow=none;html=1;fontSize=16;strokeColor=#0000CC;entryX=0;entryY=0.5;entryDx=0;entryDy=0;" edge="1" parent="1" target="jTqTIfcvwIFW0CQxLmbo-97">
          <mxGeometry width="50" height="50" relative="1" as="geometry">
            <mxPoint x="210" y="1200" as="sourcePoint" />
            <mxPoint x="610" y="590" as="targetPoint" />
            <Array as="points">
              <mxPoint x="210" y="590" />
            </Array>
          </mxGeometry>
        </mxCell>
        <mxCell id="jTqTIfcvwIFW0CQxLmbo-111" value="HAS&amp;nbsp;" style="rhombus;whiteSpace=wrap;html=1;fillColor=#FF9999;fontSize=16;" vertex="1" parent="1">
          <mxGeometry x="1095" y="610" width="80" height="80" as="geometry" />
        </mxCell>
        <mxCell id="jTqTIfcvwIFW0CQxLmbo-112" value="" style="endArrow=none;html=1;fontSize=16;exitX=1;exitY=0.5;exitDx=0;exitDy=0;entryX=0.5;entryY=1;entryDx=0;entryDy=0;" edge="1" parent="1" source="jTqTIfcvwIFW0CQxLmbo-62" target="jTqTIfcvwIFW0CQxLmbo-111">
          <mxGeometry width="50" height="50" relative="1" as="geometry">
            <mxPoint x="1110" y="910" as="sourcePoint" />
            <mxPoint x="1160" y="860" as="targetPoint" />
            <Array as="points">
              <mxPoint x="1140" y="910" />
            </Array>
          </mxGeometry>
        </mxCell>
        <mxCell id="jTqTIfcvwIFW0CQxLmbo-113" value="" style="endArrow=none;html=1;fontSize=16;exitX=0.5;exitY=0;exitDx=0;exitDy=0;" edge="1" parent="1" source="jTqTIfcvwIFW0CQxLmbo-111">
          <mxGeometry width="50" height="50" relative="1" as="geometry">
            <mxPoint x="1130" y="600" as="sourcePoint" />
            <mxPoint x="1250" y="120" as="targetPoint" />
            <Array as="points">
              <mxPoint x="1135" y="290" />
              <mxPoint x="1250" y="290" />
            </Array>
          </mxGeometry>
        </mxCell>
        <mxCell id="jTqTIfcvwIFW0CQxLmbo-114" value="" style="endArrow=none;html=1;fontSize=16;strokeColor=#000000;exitX=0.5;exitY=0;exitDx=0;exitDy=0;" edge="1" parent="1" source="jTqTIfcvwIFW0CQxLmbo-37" target="jTqTIfcvwIFW0CQxLmbo-62">
          <mxGeometry width="50" height="50" relative="1" as="geometry">
            <mxPoint x="785" y="1090" as="sourcePoint" />
            <mxPoint x="780" y="1030" as="targetPoint" />
            <Array as="points">
              <mxPoint x="700" y="1050" />
              <mxPoint x="786" y="1050" />
            </Array>
          </mxGeometry>
        </mxCell>
        <mxCell id="jTqTIfcvwIFW0CQxLmbo-115" value="*:*" style="text;html=1;align=center;verticalAlign=middle;resizable=0;points=[];autosize=1;strokeColor=none;fontSize=31;" vertex="1" parent="1">
          <mxGeometry x="435" y="1190" width="50" height="40" as="geometry" />
        </mxCell>
        <mxCell id="jTqTIfcvwIFW0CQxLmbo-116" value="*:1" style="text;html=1;align=center;verticalAlign=middle;resizable=0;points=[];autosize=1;strokeColor=none;fontSize=32;" vertex="1" parent="1">
          <mxGeometry x="685" y="990" width="50" height="40" as="geometry" />
        </mxCell>
        <mxCell id="jTqTIfcvwIFW0CQxLmbo-117" value="1:1" style="text;html=1;align=center;verticalAlign=middle;resizable=0;points=[];autosize=1;strokeColor=none;fontSize=31;" vertex="1" parent="1">
          <mxGeometry x="935" y="860" width="60" height="40" as="geometry" />
        </mxCell>
      </root>
    </mxGraphModel>
  </diagram>
</mxfile>
